<?xml version="1.0" encoding="utf-8"?><!DOCTYPE svg PUBLIC "-//W3C//DTD SVG 1.1//EN" "http://www.w3.org/Graphics/SVG/1.1/DTD/svg11.dtd"><svg viewBox="0 0 568.034 568.034" xmlns="http://www.w3.org/2000/svg" xmlns:xlink="http://www.w3.org/1999/xlink"><style>:root>svg{display:none}:root>svg:target{display:block}</style><svg viewBox="0 0 119.664 40" id="download__app-store" xmlns="http://www.w3.org/2000/svg"><path d="M110.135 0H9.535c-.367 0-.73 0-1.095.002-.306.002-.61.008-.919.013A13.215 13.215 0 005.517.19a6.665 6.665 0 00-1.9.627 6.438 6.438 0 00-1.62 1.18A6.258 6.258 0 00.82 3.617a6.601 6.601 0 00-.625 1.903 12.993 12.993 0 00-.179 2.002c-.01.307-.01.615-.015.921V31.56c.005.31.006.61.015.921a12.992 12.992 0 00.18 2.002 6.588 6.588 0 00.624 1.905A6.208 6.208 0 001.998 38a6.274 6.274 0 001.618 1.179 6.7 6.7 0 001.901.63 13.455 13.455 0 002.004.177c.31.007.613.011.919.011.366.002.728.002 1.095.002h100.6c.36 0 .724 0 1.084-.002.304 0 .617-.004.922-.01a13.279 13.279 0 002-.178 6.804 6.804 0 001.908-.63A6.277 6.277 0 00117.666 38a6.395 6.395 0 001.182-1.614 6.604 6.604 0 00.619-1.905 13.506 13.506 0 00.185-2.002c.004-.31.004-.61.004-.921.008-.364.008-.725.008-1.094V9.536c0-.366 0-.73-.008-1.092 0-.306 0-.614-.004-.92a13.507 13.507 0 00-.185-2.003 6.618 6.618 0 00-.62-1.903 6.466 6.466 0 00-2.798-2.8 6.768 6.768 0 00-1.908-.627 13.044 13.044 0 00-2-.176c-.305-.005-.618-.011-.922-.013-.36-.002-.725-.002-1.084-.002z" fill="#a6a6a6"/><path d="M8.445 39.125c-.305 0-.602-.004-.904-.01a12.687 12.687 0 01-1.87-.164 5.884 5.884 0 01-1.656-.548 5.406 5.406 0 01-1.397-1.016 5.32 5.32 0 01-1.02-1.397 5.722 5.722 0 01-.544-1.657 12.414 12.414 0 01-.166-1.875c-.007-.21-.015-.913-.015-.913v-23.1s.009-.692.015-.895a12.37 12.37 0 01.165-1.872 5.755 5.755 0 01.544-1.662 5.373 5.373 0 011.015-1.398 5.565 5.565 0 011.402-1.023 5.823 5.823 0 011.653-.544A12.586 12.586 0 017.543.887l.902-.012h102.769l.913.013a12.385 12.385 0 011.858.162 5.938 5.938 0 011.671.548 5.594 5.594 0 012.415 2.42 5.763 5.763 0 01.535 1.649 12.995 12.995 0 01.174 1.887c.003.283.003.588.003.89.008.375.008.732.008 1.092v20.929c0 .363 0 .718-.008 1.075 0 .325 0 .623-.004.93a12.731 12.731 0 01-.17 1.853 5.739 5.739 0 01-.54 1.67 5.48 5.48 0 01-1.016 1.386 5.413 5.413 0 01-1.4 1.022 5.862 5.862 0 01-1.668.55 12.542 12.542 0 01-1.869.163c-.293.007-.6.011-.897.011l-1.084.002z"/><g data-name="&lt;Group>"><g data-name="&lt;Group>" fill="#fff"><path data-name="&lt;Path>" d="M24.769 20.3a4.949 4.949 0 012.356-4.151 5.066 5.066 0 00-3.99-2.158c-1.68-.176-3.308 1.005-4.164 1.005-.872 0-2.19-.988-3.608-.958a5.315 5.315 0 00-4.473 2.728c-1.934 3.348-.491 8.269 1.361 10.976.927 1.325 2.01 2.805 3.428 2.753 1.387-.058 1.905-.885 3.58-.885 1.658 0 2.144.885 3.59.852 1.489-.025 2.426-1.332 3.32-2.67a10.962 10.962 0 001.52-3.092 4.782 4.782 0 01-2.92-4.4zM22.037 12.21a4.872 4.872 0 001.115-3.49 4.957 4.957 0 00-3.208 1.66A4.636 4.636 0 0018.8 13.74a4.1 4.1 0 003.237-1.53z"/></g><g fill="#fff"><path d="M42.302 27.14H37.57l-1.137 3.356h-2.005l4.484-12.418h2.083l4.483 12.418h-2.039zm-4.243-1.55h3.752l-1.85-5.446h-.051zM55.16 25.97c0 2.813-1.506 4.62-3.779 4.62a3.07 3.07 0 01-2.848-1.583h-.043v4.484H46.63V21.442h1.8v1.506h.033a3.212 3.212 0 012.883-1.6c2.298 0 3.813 1.816 3.813 4.622zm-1.91 0c0-1.833-.948-3.038-2.393-3.038-1.42 0-2.375 1.23-2.375 3.038 0 1.824.955 3.046 2.375 3.046 1.445 0 2.393-1.197 2.393-3.046zM65.125 25.97c0 2.813-1.506 4.62-3.779 4.62a3.07 3.07 0 01-2.848-1.583h-.043v4.484h-1.859V21.442h1.799v1.506h.034a3.212 3.212 0 012.883-1.6c2.298 0 3.813 1.816 3.813 4.622zm-1.91 0c0-1.833-.948-3.038-2.393-3.038-1.42 0-2.375 1.23-2.375 3.038 0 1.824.955 3.046 2.375 3.046 1.445 0 2.392-1.197 2.392-3.046zM71.71 27.036c.138 1.232 1.334 2.04 2.97 2.04 1.566 0 2.693-.808 2.693-1.919 0-.964-.68-1.54-2.29-1.936l-1.609-.388c-2.28-.55-3.339-1.617-3.339-3.348 0-2.142 1.867-3.614 4.519-3.614 2.624 0 4.423 1.472 4.483 3.614h-1.876c-.112-1.239-1.136-1.987-2.634-1.987s-2.521.757-2.521 1.858c0 .878.654 1.395 2.255 1.79l1.368.336c2.548.603 3.606 1.626 3.606 3.443 0 2.323-1.85 3.778-4.793 3.778-2.754 0-4.614-1.42-4.734-3.667zM83.346 19.3v2.142h1.722v1.472h-1.722v4.991c0 .776.345 1.137 1.102 1.137a5.808 5.808 0 00.611-.043v1.463a5.104 5.104 0 01-1.032.086c-1.833 0-2.548-.689-2.548-2.445v-5.189h-1.316v-1.472h1.316V19.3zM86.065 25.97c0-2.849 1.678-4.639 4.294-4.639 2.625 0 4.295 1.79 4.295 4.639 0 2.856-1.661 4.638-4.295 4.638-2.633 0-4.294-1.782-4.294-4.638zm6.695 0c0-1.954-.895-3.108-2.401-3.108s-2.4 1.162-2.4 3.108c0 1.962.894 3.106 2.4 3.106s2.401-1.144 2.401-3.106zM96.186 21.442h1.773v1.541h.043a2.16 2.16 0 012.177-1.635 2.866 2.866 0 01.637.069v1.738a2.598 2.598 0 00-.835-.112 1.873 1.873 0 00-1.937 2.083v5.37h-1.858zM109.384 27.837c-.25 1.643-1.85 2.771-3.898 2.771-2.634 0-4.269-1.764-4.269-4.595 0-2.84 1.644-4.682 4.19-4.682 2.506 0 4.08 1.72 4.08 4.466v.637h-6.394v.112a2.358 2.358 0 002.436 2.564 2.048 2.048 0 002.09-1.273zm-6.282-2.702h4.526a2.177 2.177 0 00-2.22-2.298 2.292 2.292 0 00-2.306 2.298z"/></g></g><g data-name="&lt;Group>"><g fill="#fff"><path d="M37.826 8.731a2.64 2.64 0 012.808 2.965c0 1.906-1.03 3.002-2.808 3.002h-2.155V8.73zm-1.228 5.123h1.125a1.876 1.876 0 001.967-2.146 1.881 1.881 0 00-1.967-2.134h-1.125zM41.68 12.444a2.133 2.133 0 114.248 0 2.134 2.134 0 11-4.247 0zm3.334 0c0-.976-.439-1.547-1.208-1.547-.773 0-1.207.571-1.207 1.547 0 .984.434 1.55 1.207 1.55.77 0 1.208-.57 1.208-1.55zM51.573 14.698h-.922l-.93-3.317h-.07l-.927 3.317h-.913l-1.242-4.503h.902l.806 3.436h.067l.926-3.436h.852l.926 3.436h.07l.803-3.436h.889zM53.854 10.195h.855v.715h.066a1.348 1.348 0 011.344-.802 1.465 1.465 0 011.559 1.675v2.915h-.889v-2.692c0-.724-.314-1.084-.972-1.084a1.033 1.033 0 00-1.075 1.141v2.635h-.888zM59.094 8.437h.888v6.26h-.888zM61.218 12.444a2.133 2.133 0 114.247 0 2.134 2.134 0 11-4.247 0zm3.333 0c0-.976-.439-1.547-1.208-1.547-.773 0-1.207.571-1.207 1.547 0 .984.434 1.55 1.207 1.55.77 0 1.208-.57 1.208-1.55zM66.4 13.424c0-.81.604-1.278 1.676-1.344l1.22-.07v-.389c0-.475-.315-.744-.922-.744-.497 0-.84.182-.939.5h-.86c.09-.773.818-1.27 1.84-1.27 1.128 0 1.765.563 1.765 1.514v3.077h-.855v-.633h-.07a1.515 1.515 0 01-1.353.707 1.36 1.36 0 01-1.501-1.348zm2.895-.384v-.377l-1.1.07c-.62.042-.9.253-.9.65 0 .405.351.64.834.64a1.062 1.062 0 001.166-.983zM71.348 12.444c0-1.423.732-2.324 1.87-2.324a1.484 1.484 0 011.38.79h.067V8.437h.888v6.26h-.851v-.71h-.07a1.563 1.563 0 01-1.415.785c-1.145 0-1.869-.901-1.869-2.328zm.918 0c0 .955.45 1.53 1.203 1.53.75 0 1.212-.583 1.212-1.526 0-.938-.468-1.53-1.212-1.53-.748 0-1.203.58-1.203 1.526zM79.23 12.444a2.133 2.133 0 114.247 0 2.134 2.134 0 11-4.247 0zm3.333 0c0-.976-.438-1.547-1.208-1.547-.772 0-1.207.571-1.207 1.547 0 .984.435 1.55 1.207 1.55.77 0 1.208-.57 1.208-1.55zM84.67 10.195h.855v.715h.066a1.348 1.348 0 011.344-.802 1.465 1.465 0 011.559 1.675v2.915h-.889v-2.692c0-.724-.314-1.084-.972-1.084a1.033 1.033 0 00-1.075 1.141v2.635h-.889zM93.515 9.074v1.141h.976v.749h-.976v2.315c0 .472.194.679.637.679a2.967 2.967 0 00.339-.021v.74a2.916 2.916 0 01-.484.046c-.988 0-1.381-.348-1.381-1.216v-2.543h-.715v-.749h.715V9.074zM95.705 8.437h.88v2.481h.07a1.386 1.386 0 011.374-.806 1.483 1.483 0 011.55 1.679v2.907h-.889V12.01c0-.72-.335-1.084-.963-1.084a1.052 1.052 0 00-1.134 1.142v2.63h-.888zM104.761 13.482a1.828 1.828 0 01-1.95 1.303 2.045 2.045 0 01-2.081-2.325 2.077 2.077 0 012.076-2.352c1.253 0 2.009.856 2.009 2.27v.31h-3.18v.05a1.19 1.19 0 001.2 1.29 1.08 1.08 0 001.07-.546zm-3.126-1.451h2.275a1.086 1.086 0 00-1.109-1.167 1.152 1.152 0 00-1.166 1.167z"/></g></g></svg><svg viewBox="0 0 155.139 155.139" id="f" xmlns="http://www.w3.org/2000/svg"><path d="M89.584 155.139V84.378h23.742l3.562-27.585H89.584V39.184c0-7.984 2.208-13.425 13.67-13.425l14.595-.006V1.08C115.325.752 106.661 0 96.577 0 75.52 0 61.104 12.853 61.104 36.452v20.341H37.29v27.585h23.814v70.761h28.48z"/></svg><svg viewBox="0 0 568.034 568.034" id="git" xmlns="http://www.w3.org/2000/svg"><path d="M550.99 0H17.051C8.948 0 2.381 6.567 2.381 14.67v538.694c0 8.104 6.567 14.67 14.67 14.67h177.498v-.129c8.011-.092 14.149-4.577 14.431-12.166.728-19.725.214-39.492.214-58.562-14.296.667-27.944 2.473-41.438 1.695-29.762-1.714-52.632-14.413-64.493-43.556-7.026-17.265-17.613-32.032-34.101-41.886-3.079-1.842-5.771-4.554-8.127-7.308-3.079-3.592-2.503-7.282 2.362-8.268 4.908-.998 10.27-1.695 15.11-.79 19.009 3.568 32.154 15.49 42.216 31.347 19.896 31.371 50.521 40.974 84.976 26.487 1.921-.808 4.363-2.766 4.725-4.553 2.778-13.887 7.968-26.549 18.427-37.65-11.628-2.154-22.399-3.739-32.962-6.188-30.417-7.038-57.742-19.7-77.724-44.848-16.303-20.514-23.758-44.528-27.185-70.086-5.367-40.031-.563-77.503 26.928-109.493 1.389-1.616 2.142-4.927 1.524-6.94-6.885-22.497-5.833-44.805.991-67.051 3.581-11.683 4.578-12.265 16.5-10.637.729.098 1.438.281 2.161.404 23.898 3.954 44.468 15.526 64.731 27.95 2.724 1.671 6.873 2.711 9.866 1.983 48.397-11.744 96.702-11.695 145.093.043 2.809.679 6.561-.288 9.247-1.695 11.016-5.759 21.561-12.454 32.718-17.914 12.98-6.346 26.652-11.12 41.371-10.857 2.576.049 6.561 2.509 7.423 4.786 8.856 23.464 10.723 47.375 3.666 71.794-.753 2.607.367 6.322 1.769 8.892 6.965 12.779 16.689 24.572 21.096 38.127 13.434 41.316 8.538 82.229-9.749 121.06-16.757 35.594-47.834 53.63-84.621 62.933-12.424 3.14-25.153 5.049-38.556 7.681 17.564 18.348 20.318 40.74 20.006 64.192-.324 24.192-.238 48.391-.251 72.589-.006 11.72 5.11 18.195 14.039 18.574-.006.037 188.723.037 188.723.037V14.67C565.653 6.567 559.087 0 550.99 0z"/></svg><svg viewBox="0 0 511.76 511.76" id="gold-medal" xmlns="http://www.w3.org/2000/svg"><path fill="#e95454" d="M151.352 221.248l-111.76 210.56 101.488-9.376 49.12 89.312 111.76-210.56z"/><g fill="#ed6362"><path d="M164.152 450.432c3.136-6.736-.144-14.784-6.704-18.272l-6.432-3.424c-6.432-3.664-8.88-11.808-5.376-18.4 3.552-6.704 11.904-9.264 18.608-5.712l18.176 9.648c5.616 2.976 12.656.816 15.552-4.832l.448-.864c3.328-5.328 1.36-12.368-4.176-15.296l-54.368-28.848c-6.624-3.52-9.872-11.536-6.784-18.288 3.408-7.184 12.016-10.016 18.944-6.336l50.432 26.768c5.616 2.976 12.656.816 15.632-4.8l.288-.736.08-.16c3.216-5.888.96-13.28-4.976-16.432l-28.288-15.008c-6.624-3.52-9.872-11.536-6.736-18.368 3.376-7.104 12.016-10.016 18.944-6.336l31.248 16.592c5.84 3.104 12.816.512 15.84-5.376.048-.08.048-.08.08-.16.048-.08.048-.08.08-.16 3.184-5.808 1.424-13.04-4.432-16.128l-33.712-17.888c-6.544-3.472-9.792-11.488-6.704-18.24 3.408-7.184 12.016-10.016 18.944-6.336l83.168 44.144-111.76 210.56-30.8-55.984c1.984-1.344 3.712-3.008 4.784-5.328z"/><path d="M360.408 221.248l111.76 210.56-101.488-9.376-49.12 89.312-111.76-210.56z"/></g><path d="M347.608 450.432c-3.136-6.736.144-14.784 6.704-18.272l6.432-3.424c6.432-3.664 8.88-11.808 5.376-18.4-3.552-6.704-11.904-9.264-18.608-5.712l-18.176 9.648c-5.616 2.976-12.656.816-15.552-4.832l-.448-.864c-3.328-5.328-1.36-12.368 4.176-15.296l54.384-28.864c6.624-3.52 9.872-11.536 6.784-18.288-3.408-7.184-12.016-10.016-18.944-6.336l-50.432 26.768c-5.616 2.976-12.656.816-15.632-4.8l-.288-.736-.08-.16c-3.216-5.888-.96-13.28 4.976-16.432l28.288-15.008c6.624-3.52 9.872-11.536 6.736-18.368-3.376-7.104-12.016-10.016-18.944-6.336l-31.28 16.624c-5.84 3.104-12.816.512-15.84-5.376-.048-.08-.048-.08-.08-.16-.048-.08-.048-.08-.08-.16-3.184-5.808-1.424-13.04 4.432-16.128l33.712-17.888c6.544-3.472 9.792-11.488 6.704-18.24-3.408-7.184-12.016-10.016-18.944-6.336L209.816 301.2l111.76 210.56 30.8-55.984c-1.968-1.36-3.696-3.024-4.768-5.344z" fill="#e95454"/><circle cx="255.88" cy="186.736" r="186.736" fill="#ffcc5b"/><path d="M281.208 165.312H162.872c-9.2 0-16.752-7.552-16.752-16.752l.128-1.152v-.256c-.128-9.712 7.792-17.648 17.52-17.648h82.016c10.864 0 20.464-8.048 21.104-18.928.512-11.376-8.56-20.976-19.952-20.976h-86.88c-9.584 0-16.752-8.048-16.624-17.648v-.256-.256c-.128-9.584 7.024-17.648 16.624-17.648h90.912c10.736 0 20.336-8.048 20.976-18.8.512-11.504-8.56-20.976-19.952-20.976h-66.576C117.528 42 69.688 108.752 69.688 186.736s47.84 144.72 115.744 172.672h84.528c10.736 0 20.336-8.048 20.976-18.8.512-11.504-8.56-20.96-19.952-20.96l-96.16-.016c-11.344 0-20.48-9.488-19.872-20.976.56-10.752 10.224-18.832 20.992-18.832h37.28c10.72-.304 19.376-9.088 19.376-19.888 0-10.992-8.944-19.952-19.952-19.952h-56.512c-9.2 0-16.752-7.536-16.624-16.752v-1.408c-.64-9.072 6.656-16.752 15.728-16.752h124.816c10.864 0 20.464-8.048 21.104-18.8.512-11.488-8.576-20.96-19.952-20.96z" fill="#fdbc4b"/><path d="M255.88 320.016c-73.504 0-133.296-59.808-133.296-133.296S182.376 53.44 255.88 53.44s133.296 59.808 133.296 133.296-59.792 133.28-133.296 133.28z" fill="#ffdb70"/><g fill="#ed6362"><path d="M191.656 239.504c-2.096 1.904-3.328 4.176-4.304 6.576-.928 2.416-1.6 4.96-1.424 7.808.192 2.864 1.36 6.016 1.52 8.848.032.368-.064.72-.048 1.072a133.768 133.768 0 01-13.76-22.48c.096-1.584.336-3.088.912-4.416.928-2.304 2.896-4.032 4.144-6.128 1.232-2.096 1.84-4.496 2.368-6.944.48-2.48.864-4.992.624-7.936-.224-.144-.464-.288-.688-.448-2.384 1.264-4.032 3.04-5.472 4.992-1.376 1.984-2.56 4.128-3.008 6.752-.416 2.64 0 5.76-.464 8.336-.08.496-.304.928-.432 1.408a135.282 135.282 0 01-8.048-24.224c.432-1.792 1.024-3.456 2-4.768 1.344-1.872 3.584-2.976 5.184-4.576 1.584-1.632 2.624-3.68 3.584-5.824.928-2.192 1.76-4.432 2.048-7.248l-.576-.576c-2.496.592-4.4 1.856-6.128 3.312-1.696 1.488-3.216 3.216-4.16 5.504-.912 2.32-1.12 5.296-2.08 7.536-.24.608-.624 1.072-.944 1.616a136.374 136.374 0 01-2.432-24.848c.848-1.968 1.84-3.76 3.28-4.944 1.632-1.408 3.936-1.856 5.744-2.96 1.792-1.12 3.152-2.816 4.448-4.592 1.264-1.84 2.448-3.776 3.232-6.4-.144-.24-.288-.464-.432-.704-2.464-.064-4.464.688-6.352 1.632-1.856 1.008-3.616 2.224-4.912 4.176-1.296 1.968-2.032 4.704-3.36 6.56-.448.656-1.008 1.136-1.552 1.648a138.849 138.849 0 013.024-24.304c.08-.128.16-.24.24-.368 1.296-1.968 2.736-3.712 4.544-4.592 1.776-.928 3.984-.752 5.872-1.36 1.872-.624 3.44-1.904 4.976-3.328 1.504-1.472 2.96-3.056 4.192-5.44-.096-.256-.176-.528-.272-.8-2.256-.656-4.24-.416-6.16.032-1.904.512-3.76 1.264-5.328 2.816-1.568 1.584-2.784 4.032-4.368 5.44-.688.656-1.44 1.088-2.224 1.504a137.516 137.516 0 018.56-23.408c.064.096.144.176.208.272.304-.32.624-.624.928-.944 1.6-1.584 3.264-2.912 5.072-3.312 1.808-.464 3.776.256 5.6.112 1.824-.16 3.52-1.04 5.216-2.08 1.68-1.104 3.344-2.336 4.976-4.416-.016-.288-.048-.576-.064-.848-1.904-1.168-3.744-1.408-5.6-1.408-1.84.048-3.68.352-5.44 1.504-1.76 1.184-3.392 3.28-5.12 4.272-.848.528-1.744.832-2.64 1.024.032-.176.032-.336.064-.512 5.824-10.816 13.232-21.04 22.24-30.352a139.539 139.539 0 00-21.76 27.008c.016-.288.144-.624.144-.912.144-2.08.24-4.144.048-6.096-.624-3.824-1.664-7.52-4.496-10.64l-.912.336c-3.008 5.296-3.792 9.92-3.808 14.144.128 2.064.592 3.952 1.216 5.76.512 1.872 1.44 3.52 2.592 5.04.16.224.32.432.496.656a137.66 137.66 0 00-8.624 20.16c-.016-.064 0-.144-.016-.224-.464-2.128-.912-4.288-1.6-6.288-1.6-3.856-3.552-7.52-7.104-10.256-.272.176-.528.352-.8.528-1.616 6.08-1.232 11.056-.144 15.44.64 2.112 1.616 3.984 2.704 5.744.992 1.84 2.352 3.376 3.888 4.736.048.032.096.08.128.112a139.622 139.622 0 00-3.712 20.832c-.944-2.064-1.904-4.112-3.056-5.952-2.592-3.68-5.456-7.12-9.68-9.328-.224.224-.448.448-.672.688-.096 6.592 1.552 11.648 3.76 15.968 1.2 2.064 2.656 3.808 4.208 5.408 1.36 1.568 3.008 2.752 4.752 3.808a141.4 141.4 0 00.992 20.8c-1.408-1.792-2.8-3.6-4.336-5.152-3.568-3.264-7.344-6.272-12.144-7.824-.176.272-.336.544-.512.816 1.536 6.768 4.512 11.648 7.872 15.632 1.744 1.888 3.68 3.392 5.68 4.72 1.6 1.2 3.392 1.968 5.216 2.656a140.616 140.616 0 005.6 19.984c-1.808-1.44-3.584-2.912-5.456-4.144-4.512-2.64-9.136-5.008-14.448-5.712-.112.304-.208.608-.32.912 3.28 6.608 7.568 11.008 12.064 14.4 2.288 1.584 4.672 2.72 7.088 3.68 1.76.8 3.6 1.152 5.424 1.488a139.434 139.434 0 0010.144 18.368c-2.144-1.024-4.272-2.112-6.416-2.912-5.376-1.76-10.784-3.28-16.464-3.04l-.096.992c5.072 6.08 10.688 9.68 16.256 12.208 2.8 1.136 5.6 1.808 8.384 2.288 1.824.4 3.616.336 5.424.352a143.95 143.95 0 009.712 11.136l5.488-5.488a138.077 138.077 0 01-11.104-12.08c-.176-1.376-.24-2.704-.048-3.968.336-2.672 1.856-4.976 2.592-7.472.704-2.512.752-5.168.72-7.856-.08-2.704-.256-5.408-1.12-8.4a6.241 6.241 0 00-.752-.32zM320.104 239.504c2.096 1.904 3.328 4.176 4.304 6.576.928 2.416 1.6 4.96 1.424 7.808-.192 2.864-1.36 6.016-1.52 8.848-.032.368.064.72.048 1.072a133.768 133.768 0 0013.76-22.48c-.096-1.584-.336-3.088-.912-4.416-.928-2.304-2.896-4.032-4.144-6.128-1.232-2.096-1.84-4.496-2.368-6.944-.48-2.48-.864-4.992-.624-7.936.224-.144.464-.288.688-.448 2.384 1.264 4.032 3.04 5.472 4.992 1.376 1.984 2.56 4.128 3.008 6.752.416 2.64 0 5.76.464 8.336.08.496.304.928.432 1.408a135.282 135.282 0 008.048-24.224c-.432-1.792-1.024-3.456-2-4.768-1.344-1.872-3.584-2.976-5.184-4.576-1.584-1.632-2.624-3.68-3.584-5.824-.928-2.192-1.76-4.432-2.048-7.248l.576-.576c2.496.592 4.4 1.856 6.128 3.312 1.696 1.488 3.216 3.216 4.16 5.504.912 2.32 1.12 5.296 2.08 7.536.24.608.624 1.072.944 1.616a136.374 136.374 0 002.432-24.848c-.848-1.968-1.84-3.76-3.28-4.944-1.632-1.408-3.936-1.856-5.744-2.96-1.792-1.12-3.152-2.816-4.448-4.592-1.264-1.84-2.448-3.776-3.232-6.4.144-.24.288-.464.432-.704 2.464-.064 4.464.688 6.352 1.632 1.856 1.008 3.616 2.224 4.912 4.176 1.296 1.968 2.032 4.704 3.36 6.56.448.656 1.008 1.136 1.552 1.648a138.849 138.849 0 00-3.024-24.304c-.08-.128-.16-.24-.24-.368-1.296-1.968-2.736-3.712-4.544-4.592-1.776-.928-3.984-.752-5.872-1.36-1.872-.624-3.44-1.904-4.976-3.328-1.504-1.472-2.96-3.056-4.192-5.44.096-.256.176-.528.272-.8 2.256-.656 4.24-.416 6.16.032 1.904.512 3.76 1.264 5.328 2.816 1.568 1.584 2.784 4.032 4.368 5.44.688.656 1.44 1.088 2.224 1.504a133.719 133.719 0 00-8.528-23.392c-.064.096-.144.176-.208.272-.304-.32-.624-.624-.928-.944-1.6-1.584-3.264-2.912-5.072-3.312-1.808-.464-3.776.256-5.6.112-1.824-.16-3.52-1.04-5.216-2.08-1.68-1.104-3.344-2.336-4.976-4.416.016-.288.048-.576.064-.848 1.904-1.168 3.744-1.408 5.6-1.408 1.84.048 3.68.352 5.44 1.504 1.76 1.184 3.392 3.28 5.12 4.272.848.528 1.744.832 2.64 1.024-.032-.16-.048-.336-.064-.496-5.824-10.816-13.232-21.04-22.24-30.352a139.539 139.539 0 0121.76 27.008c-.016-.288-.144-.624-.144-.912-.144-2.08-.24-4.144-.048-6.096.624-3.824 1.664-7.52 4.496-10.64l.912.336c3.008 5.296 3.792 9.92 3.808 14.144-.128 2.064-.592 3.952-1.216 5.76-.512 1.872-1.44 3.52-2.592 5.04-.16.224-.32.432-.496.656a137.66 137.66 0 018.624 20.16c.016-.064 0-.144.016-.224.432-2.16.88-4.32 1.568-6.32 1.6-3.856 3.552-7.52 7.104-10.256.272.176.544.336.816.512 1.616 6.08 1.232 11.056.16 15.44-.64 2.112-1.616 3.984-2.704 5.744-.992 1.84-2.352 3.376-3.888 4.736-.048.032-.096.08-.128.112a139.622 139.622 0 013.712 20.832c.944-2.064 1.904-4.112 3.056-5.952 2.592-3.68 5.456-7.12 9.68-9.328l.672.672c.096 6.592-1.552 11.648-3.76 15.968-1.2 2.064-2.656 3.808-4.208 5.408-1.36 1.568-3.008 2.752-4.752 3.808a141.4 141.4 0 01-.992 20.8c1.408-1.792 2.8-3.6 4.336-5.152 3.568-3.264 7.344-6.272 12.144-7.824.176.272.336.544.512.816-1.536 6.768-4.512 11.648-7.872 15.632-1.744 1.888-3.68 3.392-5.68 4.72-1.6 1.2-3.392 1.968-5.216 2.656a140.616 140.616 0 01-5.6 19.984c1.808-1.44 3.584-2.912 5.456-4.144 4.512-2.64 9.136-5.008 14.448-5.712.112.304.208.608.32.912-3.28 6.608-7.568 11.008-12.064 14.4-2.288 1.584-4.672 2.72-7.088 3.68-1.76.8-3.6 1.152-5.424 1.488a139.434 139.434 0 01-10.144 18.368c2.144-1.024 4.272-2.112 6.416-2.912 5.376-1.76 10.784-3.28 16.464-3.04l.096.992c-5.072 6.08-10.688 9.68-16.256 12.208-2.8 1.136-5.6 1.808-8.384 2.288-1.824.4-3.616.336-5.424.352a143.95 143.95 0 01-9.712 11.136l-5.488-5.488c3.984-3.84 7.68-7.888 11.104-12.08.176-1.376.24-2.704.048-3.968-.336-2.672-1.856-4.976-2.592-7.472-.704-2.512-.752-5.168-.72-7.856.08-2.704.256-5.408 1.12-8.4.208-.096.464-.192.72-.288z"/></g><path d="M253.24 98.464c-3.84 10.72-10.912 20.08-21.232 28.128-5.264 4.112-10.224 7.136-15.072 9.808v30.8c10.976-5.056 21.232-11.072 29.936-19.216v126.992h33.696V98.464H253.24z" fill="#e95454"/></svg><svg viewBox="0 0 512 512" id="instagram" xmlns="http://www.w3.org/2000/svg"><path d="M301 256c0 24.852-20.148 45-45 45s-45-20.148-45-45 20.148-45 45-45 45 20.148 45 45zm0 0"/><path d="M332 120H180c-33.086 0-60 26.914-60 60v152c0 33.086 26.914 60 60 60h152c33.086 0 60-26.914 60-60V180c0-33.086-26.914-60-60-60zm-76 211c-41.355 0-75-33.645-75-75s33.645-75 75-75 75 33.645 75 75-33.645 75-75 75zm86-146c-8.285 0-15-6.715-15-15s6.715-15 15-15 15 6.715 15 15-6.715 15-15 15zm0 0"/><path d="M377 0H135C60.562 0 0 60.563 0 135v242c0 74.438 60.563 135 135 135h242c74.438 0 135-60.563 135-135V135C512 60.562 451.437 0 377 0zm45 332c0 49.625-40.375 90-90 90H180c-49.625 0-90-40.375-90-90V180c0-49.625 40.375-90 90-90h152c49.625 0 90 40.375 90 90zm0 0"/></svg><svg viewBox="0 -10 511.987 511" id="star" xmlns="http://www.w3.org/2000/svg"><path d="M510.652 185.902a27.158 27.158 0 00-23.425-18.71l-147.774-13.419-58.433-136.77C276.71 6.98 266.898.494 255.996.494s-20.715 6.487-25.023 16.534l-58.434 136.746-147.797 13.418A27.208 27.208 0 001.34 185.902c-3.371 10.368-.258 21.739 7.957 28.907l111.7 97.96-32.938 145.09c-2.41 10.668 1.73 21.696 10.582 28.094 4.757 3.438 10.324 5.188 15.937 5.188 4.84 0 9.64-1.305 13.95-3.883l127.468-76.184 127.422 76.184c9.324 5.61 21.078 5.097 29.91-1.305a27.223 27.223 0 0010.582-28.094l-32.937-145.09 111.699-97.94a27.224 27.224 0 007.98-28.927zm0 0" fill="#ffc107"/></svg><svg viewBox="0 0 512 512" id="twitter" xmlns="http://www.w3.org/2000/svg"><path d="M512 97.248c-19.04 8.352-39.328 13.888-60.48 16.576 21.76-12.992 38.368-33.408 46.176-58.016-20.288 12.096-42.688 20.64-66.56 25.408C411.872 60.704 384.416 48 354.464 48c-58.112 0-104.896 47.168-104.896 104.992 0 8.32.704 16.32 2.432 23.936-87.264-4.256-164.48-46.08-216.352-109.792-9.056 15.712-14.368 33.696-14.368 53.056 0 36.352 18.72 68.576 46.624 87.232-16.864-.32-33.408-5.216-47.424-12.928v1.152c0 51.008 36.384 93.376 84.096 103.136-8.544 2.336-17.856 3.456-27.52 3.456-6.72 0-13.504-.384-19.872-1.792 13.6 41.568 52.192 72.128 98.08 73.12-35.712 27.936-81.056 44.768-130.144 44.768-8.608 0-16.864-.384-25.12-1.44C46.496 446.88 101.6 464 161.024 464c193.152 0 298.752-160 298.752-298.688 0-4.64-.16-9.12-.384-13.568 20.832-14.784 38.336-33.248 52.608-54.496z"/></svg></svg>